<?xml version="1.0" encoding="utf-8"?>
<svg version="1.1" xmlns:xlink="http://www.w3.org/1999/xlink" width="13px" height="13px" viewBox="78 154  13 13" xmlns="http://www.w3.org/2000/svg">
  <path d="M 84.5 154  C 88.14 154  91 156.86  91 160.5  C 91 164.14  88.14 167  84.5 167  C 80.86 167  78 164.14  78 160.5  C 78 156.86  80.86 154  84.5 154  Z " fill-rule="nonzero" fill="#ffffff" stroke="none" />
  <path d="M 84.5 154.5  C 87.86 154.5  90.5 157.14  90.5 160.5  C 90.5 163.86  87.86 166.5  84.5 166.5  C 81.14 166.5  78.5 163.86  78.5 160.5  C 78.5 157.14  81.14 154.5  84.5 154.5  Z " stroke-width="1" stroke="#797979" fill="none" />
  <path d="M 84.5 163.75  C 82.68 163.75  81.25 162.32  81.25 160.5  C 81.25 158.68  82.68 157.25  84.5 157.25  C 86.32 157.25  87.75 158.68  87.75 160.5  C 87.75 162.32  86.32 163.75  84.5 163.75  " fill-rule="nonzero" fill="#797979" stroke="none" />
</svg>