<?xml version="1.0" encoding="utf-8"?>
<svg version="1.1" xmlns:xlink="http://www.w3.org/1999/xlink" width="13px" height="13px" viewBox="78 204  13 13" xmlns="http://www.w3.org/2000/svg">
  <path d="M 84.5 204  C 88.14 204  91 206.86  91 210.5  C 91 214.14  88.14 217  84.5 217  C 80.86 217  78 214.14  78 210.5  C 78 206.86  80.86 204  84.5 204  Z " fill-rule="nonzero" fill="#f0f0f0" stroke="none" />
  <path d="M 84.5 204.5  C 87.86 204.5  90.5 207.14  90.5 210.5  C 90.5 213.86  87.86 216.5  84.5 216.5  C 81.14 216.5  78.5 213.86  78.5 210.5  C 78.5 207.14  81.14 204.5  84.5 204.5  Z " stroke-width="1" stroke="#797979" fill="none" />
  <path d="M 84.5 213.75  C 82.68 213.75  81.25 212.32  81.25 210.5  C 81.25 208.68  82.68 207.25  84.5 207.25  C 86.32 207.25  87.75 208.68  87.75 210.5  C 87.75 212.32  86.32 213.75  84.5 213.75  " fill-rule="nonzero" fill="#797979" stroke="none" />
</svg>