<?xml version="1.0" encoding="utf-8"?>
<svg version="1.1" xmlns:xlink="http://www.w3.org/1999/xlink" width="13px" height="13px" viewBox="78 229  13 13" xmlns="http://www.w3.org/2000/svg">
  <path d="M 84.5 229  C 88.14 229  91 231.86  91 235.5  C 91 239.14  88.14 242  84.5 242  C 80.86 242  78 239.14  78 235.5  C 78 231.86  80.86 229  84.5 229  Z " fill-rule="nonzero" fill="#f0f0f0" stroke="none" />
  <path d="M 84.5 229.5  C 87.86 229.5  90.5 232.14  90.5 235.5  C 90.5 238.86  87.86 241.5  84.5 241.5  C 81.14 241.5  78.5 238.86  78.5 235.5  C 78.5 232.14  81.14 229.5  84.5 229.5  Z " stroke-width="1" stroke="#797979" fill="none" />
  <path d="M 84.5 238.75  C 82.68 238.75  81.25 237.32  81.25 235.5  C 81.25 233.68  82.68 232.25  84.5 232.25  C 86.32 232.25  87.75 233.68  87.75 235.5  C 87.75 237.32  86.32 238.75  84.5 238.75  " fill-rule="nonzero" fill="#797979" stroke="none" />
</svg>