<?xml version="1.0" encoding="utf-8"?>
<svg version="1.1" xmlns:xlink="http://www.w3.org/1999/xlink" width="13px" height="13px" viewBox="68 398  13 13" xmlns="http://www.w3.org/2000/svg">
  <path d="M 74.5 398  C 78.14 398  81 400.86  81 404.5  C 81 408.14  78.14 411  74.5 411  C 70.86 411  68 408.14  68 404.5  C 68 400.86  70.86 398  74.5 398  Z " fill-rule="nonzero" fill="#f0f0f0" stroke="none" />
  <path d="M 74.5 398.5  C 77.86 398.5  80.5 401.14  80.5 404.5  C 80.5 407.86  77.86 410.5  74.5 410.5  C 71.14 410.5  68.5 407.86  68.5 404.5  C 68.5 401.14  71.14 398.5  74.5 398.5  Z " stroke-width="1" stroke="#797979" fill="none" />
  <path d="M 74.5 407.75  C 72.68 407.75  71.25 406.32  71.25 404.5  C 71.25 402.68  72.68 401.25  74.5 401.25  C 76.32 401.25  77.75 402.68  77.75 404.5  C 77.75 406.32  76.32 407.75  74.5 407.75  " fill-rule="nonzero" fill="#797979" stroke="none" />
</svg>