<?xml version="1.0" encoding="utf-8"?>
<svg version="1.1" xmlns:xlink="http://www.w3.org/1999/xlink" width="13px" height="13px" viewBox="68 423  13 13" xmlns="http://www.w3.org/2000/svg">
  <path d="M 74.5 423  C 78.14 423  81 425.86  81 429.5  C 81 433.14  78.14 436  74.5 436  C 70.86 436  68 433.14  68 429.5  C 68 425.86  70.86 423  74.5 423  Z " fill-rule="nonzero" fill="#ffffff" stroke="none" />
  <path d="M 74.5 423.5  C 77.86 423.5  80.5 426.14  80.5 429.5  C 80.5 432.86  77.86 435.5  74.5 435.5  C 71.14 435.5  68.5 432.86  68.5 429.5  C 68.5 426.14  71.14 423.5  74.5 423.5  Z " stroke-width="1" stroke="#797979" fill="none" />
  <path d="M 74.5 432.75  C 72.68 432.75  71.25 431.32  71.25 429.5  C 71.25 427.68  72.68 426.25  74.5 426.25  C 76.32 426.25  77.75 427.68  77.75 429.5  C 77.75 431.32  76.32 432.75  74.5 432.75  " fill-rule="nonzero" fill="#797979" stroke="none" />
</svg>