<?xml version="1.0" encoding="utf-8"?>
<svg version="1.1" xmlns:xlink="http://www.w3.org/1999/xlink" width="13px" height="13px" viewBox="68 473  13 13" xmlns="http://www.w3.org/2000/svg">
  <path d="M 74.5 473  C 78.14 473  81 475.86  81 479.5  C 81 483.14  78.14 486  74.5 486  C 70.86 486  68 483.14  68 479.5  C 68 475.86  70.86 473  74.5 473  Z " fill-rule="nonzero" fill="#ffffff" stroke="none" />
  <path d="M 74.5 473.5  C 77.86 473.5  80.5 476.14  80.5 479.5  C 80.5 482.86  77.86 485.5  74.5 485.5  C 71.14 485.5  68.5 482.86  68.5 479.5  C 68.5 476.14  71.14 473.5  74.5 473.5  Z " stroke-width="1" stroke="#797979" fill="none" />
  <path d="M 74.5 482.75  C 72.68 482.75  71.25 481.32  71.25 479.5  C 71.25 477.68  72.68 476.25  74.5 476.25  C 76.32 476.25  77.75 477.68  77.75 479.5  C 77.75 481.32  76.32 482.75  74.5 482.75  " fill-rule="nonzero" fill="#797979" stroke="none" />
</svg>