<?xml version="1.0" encoding="utf-8"?>
<svg version="1.1" xmlns:xlink="http://www.w3.org/1999/xlink" width="13px" height="13px" viewBox="68 448  13 13" xmlns="http://www.w3.org/2000/svg">
  <path d="M 74.5 448  C 78.14 448  81 450.86  81 454.5  C 81 458.14  78.14 461  74.5 461  C 70.86 461  68 458.14  68 454.5  C 68 450.86  70.86 448  74.5 448  Z " fill-rule="nonzero" fill="#ffffff" stroke="none" />
  <path d="M 74.5 448.5  C 77.86 448.5  80.5 451.14  80.5 454.5  C 80.5 457.86  77.86 460.5  74.5 460.5  C 71.14 460.5  68.5 457.86  68.5 454.5  C 68.5 451.14  71.14 448.5  74.5 448.5  Z " stroke-width="1" stroke="#797979" fill="none" />
  <path d="M 74.5 457.75  C 72.68 457.75  71.25 456.32  71.25 454.5  C 71.25 452.68  72.68 451.25  74.5 451.25  C 76.32 451.25  77.75 452.68  77.75 454.5  C 77.75 456.32  76.32 457.75  74.5 457.75  " fill-rule="nonzero" fill="#797979" stroke="none" />
</svg>