<?xml version="1.0" encoding="utf-8"?>
<svg version="1.1" xmlns:xlink="http://www.w3.org/1999/xlink" width="13px" height="13px" viewBox="68 601  13 13" xmlns="http://www.w3.org/2000/svg">
  <path d="M 74.5 601  C 78.14 601  81 603.86  81 607.5  C 81 611.14  78.14 614  74.5 614  C 70.86 614  68 611.14  68 607.5  C 68 603.86  70.86 601  74.5 601  Z " fill-rule="nonzero" fill="#f0f0f0" stroke="none" />
  <path d="M 74.5 601.5  C 77.86 601.5  80.5 604.14  80.5 607.5  C 80.5 610.86  77.86 613.5  74.5 613.5  C 71.14 613.5  68.5 610.86  68.5 607.5  C 68.5 604.14  71.14 601.5  74.5 601.5  Z " stroke-width="1" stroke="#797979" fill="none" />
  <path d="M 74.5 610.75  C 72.68 610.75  71.25 609.32  71.25 607.5  C 71.25 605.68  72.68 604.25  74.5 604.25  C 76.32 604.25  77.75 605.68  77.75 607.5  C 77.75 609.32  76.32 610.75  74.5 610.75  " fill-rule="nonzero" fill="#797979" stroke="none" />
</svg>