<?xml version="1.0" encoding="utf-8"?>
<svg version="1.1" xmlns:xlink="http://www.w3.org/1999/xlink" width="13px" height="13px" viewBox="68 626  13 13" xmlns="http://www.w3.org/2000/svg">
  <path d="M 74.5 626  C 78.14 626  81 628.86  81 632.5  C 81 636.14  78.14 639  74.5 639  C 70.86 639  68 636.14  68 632.5  C 68 628.86  70.86 626  74.5 626  Z " fill-rule="nonzero" fill="#f0f0f0" stroke="none" />
  <path d="M 74.5 626.5  C 77.86 626.5  80.5 629.14  80.5 632.5  C 80.5 635.86  77.86 638.5  74.5 638.5  C 71.14 638.5  68.5 635.86  68.5 632.5  C 68.5 629.14  71.14 626.5  74.5 626.5  Z " stroke-width="1" stroke="#797979" fill="none" />
  <path d="M 74.5 635.75  C 72.68 635.75  71.25 634.32  71.25 632.5  C 71.25 630.68  72.68 629.25  74.5 629.25  C 76.32 629.25  77.75 630.68  77.75 632.5  C 77.75 634.32  76.32 635.75  74.5 635.75  " fill-rule="nonzero" fill="#797979" stroke="none" />
</svg>