<?xml version="1.0" encoding="utf-8"?>
<svg version="1.1" xmlns:xlink="http://www.w3.org/1999/xlink" width="13px" height="13px" viewBox="68 701  13 13" xmlns="http://www.w3.org/2000/svg">
  <path d="M 74.5 701  C 78.14 701  81 703.86  81 707.5  C 81 711.14  78.14 714  74.5 714  C 70.86 714  68 711.14  68 707.5  C 68 703.86  70.86 701  74.5 701  Z " fill-rule="nonzero" fill="#ffffff" stroke="none" />
  <path d="M 74.5 701.5  C 77.86 701.5  80.5 704.14  80.5 707.5  C 80.5 710.86  77.86 713.5  74.5 713.5  C 71.14 713.5  68.5 710.86  68.5 707.5  C 68.5 704.14  71.14 701.5  74.5 701.5  Z " stroke-width="1" stroke="#797979" fill="none" />
  <path d="M 74.5 710.75  C 72.68 710.75  71.25 709.32  71.25 707.5  C 71.25 705.68  72.68 704.25  74.5 704.25  C 76.32 704.25  77.75 705.68  77.75 707.5  C 77.75 709.32  76.32 710.75  74.5 710.75  " fill-rule="nonzero" fill="#797979" stroke="none" />
</svg>