<?xml version="1.0" encoding="utf-8"?>
<svg version="1.1" xmlns:xlink="http://www.w3.org/1999/xlink" width="13px" height="13px" viewBox="68 676  13 13" xmlns="http://www.w3.org/2000/svg">
  <path d="M 74.5 676  C 78.14 676  81 678.86  81 682.5  C 81 686.14  78.14 689  74.5 689  C 70.86 689  68 686.14  68 682.5  C 68 678.86  70.86 676  74.5 676  Z " fill-rule="nonzero" fill="#ffffff" stroke="none" />
  <path d="M 74.5 676.5  C 77.86 676.5  80.5 679.14  80.5 682.5  C 80.5 685.86  77.86 688.5  74.5 688.5  C 71.14 688.5  68.5 685.86  68.5 682.5  C 68.5 679.14  71.14 676.5  74.5 676.5  Z " stroke-width="1" stroke="#797979" fill="none" />
  <path d="M 74.5 685.75  C 72.68 685.75  71.25 684.32  71.25 682.5  C 71.25 680.68  72.68 679.25  74.5 679.25  C 76.32 679.25  77.75 680.68  77.75 682.5  C 77.75 684.32  76.32 685.75  74.5 685.75  " fill-rule="nonzero" fill="#797979" stroke="none" />
</svg>