<?xml version="1.0" encoding="utf-8"?>
<svg version="1.1" xmlns:xlink="http://www.w3.org/1999/xlink" width="453px" height="349px" xmlns="http://www.w3.org/2000/svg">
  <g transform="matrix(1 0 0 1 -33 -97 )">
    <path d="M 33 97  L 486 97  L 486 446  L 33 446  L 33 97  " fill-rule="nonzero" fill="#cccccc" stroke="none" />
    <path d="M 57 121  L 462 121  L 462 422  L 57 422  L 57 121  " fill-rule="nonzero" fill="#ffffff" stroke="none" />
    <path d="M 294.735 201.7  C 280.077 201.7  268.56 190.183  268.56 175.52499999999998  C 268.56 160.867  280.077 149.35  294.735 149.35  C 309.39300000000003 149.35  320.91 160.867  320.91 175.52499999999998  C 320.91 190.183  309.39300000000003 201.7  294.735 201.7  " fill-rule="nonzero" fill="#cccccc" stroke="none" />
    <path d="M 66 414  L 66 257.79999999999995  L 163 186.79999999999998  L 298.79999999999995 282.72052980132446  L 376.40000000000003 229.4  L 454 282.72052980132446  L 454 414  L 66 414  " fill-rule="nonzero" fill="#169bd5" stroke="none" />
  </g>
</svg>