<?xml version="1.0" encoding="utf-8"?>
<svg version="1.1" xmlns:xlink="http://www.w3.org/1999/xlink" width="39px" height="34px" xmlns="http://www.w3.org/2000/svg">
  <g transform="matrix(1 0 0 1 -33 -31 )">
    <path d="M 33 31  L 72 31  L 72 65  L 33 65  L 33 31  " fill-rule="nonzero" fill="#cccccc" stroke="none" />
    <path d="M 35 33  L 70 33  L 70 63  L 35 63  L 35 33  " fill-rule="nonzero" fill="#ffffff" stroke="none" />
    <path d="M 55.83 41.2  C 54.402 41.2  53.28 40.078  53.28 38.650000000000006  C 53.28 37.222  54.402 36.1  55.83 36.1  C 57.258 36.1  58.38 37.222  58.38 38.650000000000006  C 58.38 40.078  57.258 41.2  55.83 41.2  " fill-rule="nonzero" fill="#cccccc" stroke="none" />
    <path d="M 36 62  L 36 46.599999999999994  L 44.25 39.599999999999994  L 55.8 47.35384615384615  L 62.400000000000006 43.8  L 69 47.35384615384615  L 69 62  L 36 62  " fill-rule="nonzero" fill="#169bd5" stroke="none" />
  </g>
</svg>