<?xml version="1.0" encoding="utf-8"?>
<svg version="1.1" xmlns:xlink="http://www.w3.org/1999/xlink" width="189px" height="134px" xmlns="http://www.w3.org/2000/svg">
  <g transform="matrix(1 0 0 1 -531 -108 )">
    <path d="M 531 108  L 720 108  L 720 242  L 531 242  L 531 108  " fill-rule="nonzero" fill="#cccccc" stroke="none" />
    <path d="M 540 117  L 711 117  L 711 233  L 540 233  L 540 117  " fill-rule="nonzero" fill="#ffffff" stroke="none" />
    <path d="M 639.3299999999999 148.2  C 633.702 148.2  629.28 143.778  629.28 138.14999999999998  C 629.28 132.522  633.702 128.1  639.3299999999999 128.1  C 644.958 128.1  649.38 132.522  649.38 138.14999999999998  C 649.38 143.778  644.958 148.2  639.3299999999999 148.2  " fill-rule="nonzero" fill="#cccccc" stroke="none" />
    <path d="M 544 230  L 544 170.05  L 585 142.8  L 642.4 183.63174603174605  L 675.2 159.14999999999998  L 708 183.63174603174605  L 708 230  L 544 230  " fill-rule="nonzero" fill="#169bd5" stroke="none" />
  </g>
</svg>